<svg xmlns="http://www.w3.org/2000/svg" width="25" height="25" viewBox="0 0 25 25"><path d="M2.22.076A2.972,2.972,0,0,0,.852.852a2.75,2.75,0,0,0-.757,1.3C.007,2.5,0,2.831,0,12.478c0,10.84-.02,10.244.264,10.854a2.916,2.916,0,0,0,1.422,1.412c.63.278.015.264,10.937.249l10.063-.01L23,24.876A2.963,2.963,0,0,0,24.876,23l.107-.313.01-10.063c.015-11.177.039-10.341-.318-11.064A2.9,2.9,0,0,0,23.44.325C22.726-.027,23.537,0,12.478,0,4.022.007,2.469.017,2.22.076ZM21.691,3.05c.4.283.41.313.425,2.174.015,1.812,0,1.905-.293,2.193-.269.264-.4.278-2.164.274l-1.612,0-.22-.117a1.2,1.2,0,0,1-.361-.342l-.147-.215,0-1.617c0-.884.015-1.69.039-1.783a.912.912,0,0,1,.5-.615l.244-.122,1.7.015,1.69.015ZM13.474,7.794a4.848,4.848,0,0,1,3.742,3.761,5.967,5.967,0,0,1,.054,1.588,4.92,4.92,0,0,1-2.506,3.6,5.242,5.242,0,0,1-1.29.479c-.093.01-.288.039-.435.064a4.826,4.826,0,0,1-4.357-1.866,4.779,4.779,0,0,1,.093-5.935A4.871,4.871,0,0,1,12,7.725,5.1,5.1,0,0,1,13.474,7.794Zm-8.5,3.17a7.752,7.752,0,0,0,.645,4.958A7.186,7.186,0,0,0,7.075,17.93,7.619,7.619,0,0,0,13.724,20.1a7.739,7.739,0,0,0,6.223-5.667,7.586,7.586,0,0,0,.2-2.736,5.379,5.379,0,0,0-.2-1.055c-.015-.024-.01-.044.015-.049.186-.02,2.086-.015,2.12.01s.039,2.184.034,5.452L22.1,21.481l-.147.21a1.22,1.22,0,0,1-.366.322l-.22.112-8.92-.015L3.534,22.1l-.2-.132a1.285,1.285,0,0,1-.313-.318L2.9,21.467l-.015-5.4c0-2.97,0-5.417.01-5.447a5.257,5.257,0,0,1,1.089-.049h1.07Z"/></svg>